<svg width="61" height="62" viewBox="0 0 61 62" fill="none" xmlns="http://www.w3.org/2000/svg">
<path d="M60 31C60 14.4315 46.5685 1 30 1" stroke="#234CAD" stroke-width="2" stroke-linecap="round" stroke-linejoin="round"/>
<path d="M25.2273 38.3158C25.7796 38.3158 26.2273 37.8681 26.2273 37.3158C26.2273 36.7635 25.7796 36.3158 25.2273 36.3158V38.3158ZM24.5455 29.2632V30.2632H25.5455V29.2632H24.5455ZM35.4545 29.2632H34.4545V30.2632H35.4545V29.2632ZM34.7727 36.3158C34.2204 36.3158 33.7727 36.7635 33.7727 37.3158C33.7727 37.8681 34.2204 38.3158 34.7727 38.3158V36.3158ZM29 40C29 40.5523 29.4477 41 30 41C30.5523 41 31 40.5523 31 40H29ZM31 31.9474C31 31.3951 30.5523 30.9474 30 30.9474C29.4477 30.9474 29 31.3951 29 31.9474H31ZM30.7015 32.6601C31.0951 32.2727 31.1001 31.6395 30.7127 31.2459C30.3253 30.8523 29.6922 30.8473 29.2985 31.2347L30.7015 32.6601ZM26.5713 33.9189C26.1777 34.3063 26.1726 34.9394 26.56 35.333C26.9474 35.7267 27.5806 35.7317 27.9742 35.3443L26.5713 33.9189ZM30.7015 31.2347C30.3078 30.8473 29.6747 30.8523 29.2873 31.2459C28.8999 31.6395 28.9049 32.2727 29.2985 32.6601L30.7015 31.2347ZM32.0258 35.3443C32.4194 35.7317 33.0526 35.7267 33.44 35.333C33.8274 34.9394 33.8223 34.3063 33.4287 33.9189L32.0258 35.3443ZM25.2273 36.3158H24.0909V38.3158H25.2273V36.3158ZM24.0909 36.3158C22.3688 36.3158 21 34.9459 21 33.2895H19C19 36.0804 21.2943 38.3158 24.0909 38.3158V36.3158ZM21 33.2895C21 31.633 22.3688 30.2632 24.0909 30.2632V28.2632C21.2943 28.2632 19 30.4986 19 33.2895H21ZM24.0909 30.2632H24.5455V28.2632H24.0909V30.2632ZM25.5455 29.2632V28.3684H23.5455V29.2632H25.5455ZM25.5455 28.3684C25.5455 25.9708 27.5248 24 30 24V22C26.4503 22 23.5455 24.8363 23.5455 28.3684H25.5455ZM30 24C32.4752 24 34.4545 25.9708 34.4545 28.3684H36.4545C36.4545 24.8363 33.5497 22 30 22V24ZM34.4545 28.3684V29.2632H36.4545V28.3684H34.4545ZM35.4545 30.2632H35.9091V28.2632H35.4545V30.2632ZM35.9091 30.2632C37.6312 30.2632 39 31.633 39 33.2895H41C41 30.4986 38.7057 28.2632 35.9091 28.2632V30.2632ZM39 33.2895C39 34.9459 37.6312 36.3158 35.9091 36.3158V38.3158C38.7057 38.3158 41 36.0804 41 33.2895H39ZM35.9091 36.3158H34.7727V38.3158H35.9091V36.3158ZM31 40V31.9474H29V40H31ZM29.2985 31.2347L26.5713 33.9189L27.9742 35.3443L30.7015 32.6601L29.2985 31.2347ZM29.2985 32.6601L32.0258 35.3443L33.4287 33.9189L30.7015 31.2347L29.2985 32.6601Z" fill="#234CAD"/>
</svg>
